<svg width="103" height="23" viewBox="0 0 103 23" fill="none" xmlns="http://www.w3.org/2000/svg">
<path d="M0.00137313 22.882C0.00137313 22.7964 0.173895 22.5398 0.385041 22.2318C0.596187 21.9239 0.768709 21.6074 0.768709 21.539C0.768709 21.4534 0.897456 21.2225 1.05539 21.0001C1.21332 20.7777 1.5472 20.2131 1.79783 19.7546C2.46904 18.516 3.15311 17.2893 4.24266 15.3689C4.77654 14.4271 5.21393 13.5845 5.21393 13.4973C5.21393 13.4117 5.27402 13.3348 5.34955 13.3348C5.4268 13.3348 5.52379 13.215 5.57099 13.0696C5.62249 12.9242 5.8757 12.4195 6.14263 11.9618C6.41043 11.4999 6.8722 10.6744 7.16978 10.1287C7.46762 9.58122 7.76288 9.06627 7.82554 8.98244C7.88562 8.8969 8.19805 8.34944 8.51219 7.76006C9.19455 6.48465 9.34304 6.28533 9.52518 6.39739C9.60243 6.48293 10.6109 6.58558 11.7689 6.7139C12.927 6.84221 14.1677 6.97907 14.5261 7.02184C15.1552 7.10738 15.3899 7.38111 15.0145 7.60352C14.9252 7.68906 14.787 7.85159 14.708 8.03122C14.6308 8.21086 14.3604 8.707 14.1107 9.12358C13.8617 9.54273 13.5888 10.038 13.5047 10.2228C13.4188 10.4024 13.0729 11.0183 12.7313 11.5752C12.3897 12.1312 12.1108 12.6188 12.1108 12.6513C12.1108 12.6513 11.1105 14.4639 9.88799 16.6075C8.6654 18.7512 7.66512 20.5381 7.66512 20.5792C7.66512 20.6647 7.4411 21.0155 7.16643 21.462C6.89263 21.9068 6.59222 22.4064 6.49866 22.5723C6.33902 22.8546 6.13302 22.8802 3.16436 22.9145C1.42395 22.9145 0 22.9162 0 22.8289L0.00137313 22.882ZM18.3973 15.209V7.45468L20.5051 7.57443C21.6644 7.65997 22.8372 7.72841 23.1112 7.77118L23.609 7.85672V12.4374V17.0181L33.3348 16.9326H43.0606L43.3756 16.599C43.7919 16.1542 43.803 15.1756 43.3927 14.8086C43.0589 14.5092 42.2425 14.3809 38.2448 14.0302C36.7271 13.8933 34.899 13.7223 34.1823 13.6367C33.4656 13.5512 32.017 13.4229 30.9631 13.3459C28.4029 13.1577 27.2832 12.7728 26.0144 11.6616C25.2788 11.02 24.4208 9.48969 24.2688 8.55644L24.1779 8.00043L25.0027 8.003C25.4559 8.00471 26.4484 8.08854 27.2073 8.16552C27.966 8.25106 29.3113 8.37938 30.1965 8.45636C32.9451 8.67877 35.5801 8.91828 37.0184 9.08081C37.7771 9.16635 39.1914 9.30321 40.161 9.3802C44.0622 9.6967 45.0713 9.902 45.7844 10.5034C46.4169 11.0423 47.0595 11.6984 47.0595 11.8078C47.0595 11.8934 47.1651 12.0217 47.2938 12.1244C47.5573 12.3382 48.4389 14.073 48.4389 14.3715C48.4389 14.4742 48.5075 14.5682 48.5925 14.5682C48.6912 14.5682 48.7462 13.1141 48.7462 10.5093C48.7462 6.71732 48.7633 6.45556 49.014 6.52656C49.1616 6.6121 50.2825 6.64632 51.505 6.70619C52.7276 6.79174 53.8142 6.87728 53.9195 6.96282C54.0646 7.08258 54.1109 8.18349 54.1109 11.5273V15.936L54.5581 16.4322L55.0053 16.9283L59.9171 17.0139C62.6185 17.0139 65.056 17.0139 65.3336 16.9283C65.6932 16.8342 65.937 16.6289 66.1807 16.1927C66.5095 15.6195 66.5232 15.4399 66.5258 11.7865L66.5284 7.98161L69.0791 8.08426C70.482 8.1698 71.6892 8.22112 71.7618 8.27245C71.8304 8.35799 71.8939 10.2741 71.8939 12.6222V16.8915H81.6813C90.9685 16.8915 91.4817 16.8915 91.7225 16.6093C91.9834 16.3184 92.0666 15.2817 91.8555 14.9498C91.671 14.6589 90.9859 14.4622 89.8698 14.3681C87.5124 14.1713 83.6512 13.8035 81.841 13.5982C80.7776 13.4785 79.5359 13.3758 79.0816 13.3758C77.6007 13.3715 75.655 12.8455 74.8425 12.233C74.0245 11.6171 73.1827 10.6171 72.8023 9.81646C72.0848 8.3041 72.0547 8.33489 74.1549 8.42642C75.1456 8.42642 76.6115 8.56329 77.4126 8.64028C78.2134 8.72582 79.7312 8.81991 80.7852 8.86268C81.8391 8.94822 83.3223 9.01665 84.081 9.10219C84.8398 9.18774 86.6335 9.3246 88.0669 9.41014C93.0098 9.70098 93.3762 9.80363 94.947 11.316C95.2989 11.6582 95.8567 12.4682 96.1859 13.1235C96.7052 14.1577 96.7936 14.4844 96.8519 15.6041C96.9867 18.1584 96.2554 20.1797 94.6582 21.6673C94.2325 22.0608 93.6103 22.4029 92.5432 22.8289C92.2436 22.9487 89.074 23 82.0039 23H71.8933L71.8762 20.2884C71.8676 18.3757 71.8247 17.7675 71.7311 18.2251C71.3981 19.9068 70.0965 21.6972 68.7598 22.3123C67.2878 22.988 67.2099 22.9966 60.2113 22.9966C55.6425 22.9983 53.3753 22.911 53.0829 22.8255C50.7029 21.8811 49.4577 20.5133 48.888 18.2183C48.646 17.244 48.4975 17.2003 48.3799 18.0729C48.1937 19.4552 47.2509 20.9616 45.9972 21.882C44.395 23.0573 45.2608 22.9923 31.0776 22.9949L18.3921 22.9974V15.2432L18.3973 15.209ZM9.65925 5.85849C9.65925 5.77295 9.82833 5.40512 10.0343 5.0373C10.4463 4.30165 10.9677 3.34872 11.707 1.97836C11.9714 1.49078 12.4237 0.852641 12.712 0.565224L13.2365 0.0434267H18.4997H23.763V2.48818C23.763 4.77469 23.8961 5.48981 24.1407 4.51721C24.5381 2.93812 26.1329 0.974967 27.5104 0.368483C28.264 0.0348735 28.3327 0.0348732 37.7049 0.0348732C42.8947 0.0357286 47.2631 0.0382925 47.4124 0.0391479C47.6648 0.0408587 47.6811 0.253003 47.6425 2.98175L47.5995 5.92264H28.6287C16.4692 5.92264 9.65804 5.92264 9.65804 5.81144L9.65925 5.85849ZM48.6994 5.85849C48.6393 5.77295 48.5972 4.46161 48.5972 2.8791V0.00151187H51.3184H54.0394L53.9965 2.9809L53.9536 5.96028H51.3793C49.9634 5.96028 48.759 5.96028 48.7028 5.85763L48.6994 5.85849ZM66.5332 2.97833V0.00151187H69.2159H71.8987V2.53181C71.8987 3.94237 71.9587 5.02447 72.0334 4.97827C72.1107 4.97827 72.2497 4.57623 72.3484 4.18275C72.6085 3.15283 73.1801 2.26407 74.1497 1.38043C75.7565 -0.0823177 74.8947 0.0134881 86.4837 0.00493407C92.0787 0.000657033 96.7442 -0.00105551 96.8514 0.000655304C97.0033 0.00407693 97.0377 0.650764 97.0051 2.94582L96.9621 5.88671H81.7472H66.5322V2.9099L66.5332 2.97833ZM100.374 5.24088C100.564 5.24088 100.874 5.24088 101.064 5.24088C101.254 5.24088 101.098 5.32642 100.719 5.32642C100.34 5.32642 100.184 5.32642 100.374 5.24088ZM99.2552 4.6421C99.0484 4.41969 98.8819 4.16307 98.8844 4.06898C98.8871 3.97488 99.0355 4.06897 99.2132 4.33415C99.3917 4.57366 99.6827 4.82173 99.8595 4.89872C100.132 5.00992 100.139 5.02703 99.9024 5.03559C99.7505 5.04157 99.4578 4.8645 99.2509 4.6421H99.2552ZM101.715 4.87306C102.136 4.61644 102.405 4.33415 102.405 4.15452C102.405 4.06897 102.483 3.97488 102.575 3.94922C102.669 3.94922 102.798 3.4873 102.862 2.98175C102.969 2.1349 102.98 2.12121 102.999 2.73368C103.033 3.73451 102.466 4.77041 101.792 4.95689C101.438 5.05954 101.432 5.05098 101.714 4.87135L101.715 4.87306ZM99.9848 2.79356L100.028 1.45656H100.594C101.305 1.37102 101.88 1.88426 101.711 2.39665C101.578 2.79869 101.575 3.29569 101.703 3.79781C101.754 4.01166 101.728 4.17419 101.642 4.17419C101.557 4.17419 101.486 4.04588 101.486 3.88335C101.486 3.30167 101.311 3.10493 100.78 3.10493C100.287 3.10493 100.26 3.10493 100.26 3.63528C100.26 3.92612 100.191 4.16563 100.1 4.16563C99.9988 4.16563 99.9567 3.67805 99.985 2.82863L99.9848 2.79356ZM101.309 2.62248C101.422 2.53694 101.491 2.36586 101.461 2.20333C101.418 1.99803 101.25 1.90394 100.832 1.86972C100.284 1.78418 100.259 1.86972 100.259 2.28887C100.259 2.69947 100.311 2.75934 100.681 2.75079C100.912 2.74993 101.196 2.66525 101.309 2.62248ZM98.5848 3.43512C98.5922 3.25548 98.6277 3.22127 98.6775 3.34102C98.7204 3.45223 98.7204 3.58054 98.6689 3.63186C98.6174 3.7174 98.5822 3.54632 98.5917 3.43512H98.5848ZM98.5934 1.99632C98.5934 1.78247 98.6277 1.69693 98.6706 1.80813C98.7135 1.91078 98.7135 2.08186 98.6706 2.19307C98.6277 2.29571 98.5934 2.19307 98.5934 2.00488V1.99632ZM102.655 1.73115C102.604 1.58573 102.449 1.29489 102.307 1.08103C102.098 0.773087 102.127 0.790197 102.454 1.16658C102.678 1.40609 102.861 1.70548 102.861 1.81668C102.861 2.10752 102.761 2.07331 102.655 1.73115ZM98.8805 1.49163C98.8719 1.24356 99.1981 0.773089 99.3792 0.781643C99.5071 0.783353 99.5139 0.781643 99.3963 0.892846C99.3045 0.978387 99.1517 1.14091 99.0564 1.31199C98.9612 1.48308 98.8805 1.56007 98.8779 1.49163H98.8805ZM99.6427 0.472841C99.7688 0.3873 100.039 0.318867 100.243 0.318867C100.735 0.315445 100.611 0.404409 99.9499 0.524166C99.5723 0.609707 99.4813 0.609705 99.6435 0.438623L99.6427 0.472841ZM101.252 0.470276C100.828 0.359073 100.822 0.350516 101.175 0.341961C101.386 0.341961 101.662 0.427505 101.788 0.470276C102.049 0.641357 101.915 0.641357 101.252 0.470276Z" fill="white"/>
</svg>
